<svg id="visual" viewBox="0 0 900 900" width="900" height="900" xmlns="http://www.w3.org/2000/svg" xmlns:xlink="http://www.w3.org/1999/xlink" version="1.1"><rect x="0" y="0" width="900" height="900" fill="#0f3d76"></rect><path d="M0 626L37.5 610.3C75 594.7 150 563.3 225 561.5C300 559.7 375 587.3 450 607.8C525 628.3 600 641.7 675 627.7C750 613.7 825 572.3 862.5 551.7L900 531L900 901L862.5 901C825 901 750 901 675 901C600 901 525 901 450 901C375 901 300 901 225 901C150 901 75 901 37.5 901L0 901Z" fill="#111317" stroke-linecap="round" stroke-linejoin="miter"></path></svg>