<svg id="visual" viewBox="0 0 900 600" width="900" height="600" xmlns="http://www.w3.org/2000/svg" xmlns:xlink="http://www.w3.org/1999/xlink" version="1.1"><rect x="0" y="0" width="900" height="600" fill="#0f3d76"></rect><path d="M0 417L37.5 406.5C75 396 150 375 225 373.8C300 372.7 375 391.3 450 405C525 418.7 600 427.3 675 418C750 408.7 825 381.3 862.5 367.7L900 354L900 601L862.5 601C825 601 750 601 675 601C600 601 525 601 450 601C375 601 300 601 225 601C150 601 75 601 37.5 601L0 601Z" fill="#111317" stroke-linecap="round" stroke-linejoin="miter"></path></svg>