<svg id="visual" viewBox="0 0 900 450" width="900" height="450" xmlns="http://www.w3.org/2000/svg" xmlns:xlink="http://www.w3.org/1999/xlink" version="1.1"><rect x="0" y="0" width="900" height="450" fill="#0f3d76"></rect><path d="M0 312L37.5 304.2C75 296.3 150 280.7 225 279.8C300 279 375 293 450 303.3C525 313.7 600 320.3 675 313.3C750 306.3 825 285.7 862.5 275.3L900 265L900 451L862.5 451C825 451 750 451 675 451C600 451 525 451 450 451C375 451 300 451 225 451C150 451 75 451 37.5 451L0 451Z" fill="#111317" stroke-linecap="round" stroke-linejoin="miter"></path></svg>