<svg id="visual" viewBox="0 0 960 540" width="960" height="540" xmlns="http://www.w3.org/2000/svg" xmlns:xlink="http://www.w3.org/1999/xlink" version="1.1"><rect x="0" y="0" width="960" height="540" fill="#0f3d76"></rect><path d="M0 375L40 365.7C80 356.3 160 337.7 240 336.7C320 335.7 400 352.3 480 364.5C560 376.7 640 384.3 720 375.8C800 367.3 880 342.7 920 330.3L960 318L960 541L920 541C880 541 800 541 720 541C640 541 560 541 480 541C400 541 320 541 240 541C160 541 80 541 40 541L0 541Z" fill="#111317" stroke-linecap="round" stroke-linejoin="miter"></path></svg>