<svg id="visual" viewBox="0 0 900 675" width="900" height="675" xmlns="http://www.w3.org/2000/svg" xmlns:xlink="http://www.w3.org/1999/xlink" version="1.1"><rect x="0" y="0" width="900" height="675" fill="#0f3d76"></rect><path d="M0 469L37.5 457.2C75 445.3 150 421.7 225 420.3C300 419 375 440 450 455.5C525 471 600 481 675 470.5C750 460 825 429 862.5 413.5L900 398L900 676L862.5 676C825 676 750 676 675 676C600 676 525 676 450 676C375 676 300 676 225 676C150 676 75 676 37.5 676L0 676Z" fill="#111317" stroke-linecap="round" stroke-linejoin="miter"></path></svg>