<svg id="visual" viewBox="0 0 675 900" width="675" height="900" xmlns="http://www.w3.org/2000/svg" xmlns:xlink="http://www.w3.org/1999/xlink" version="1.1"><rect x="0" y="0" width="675" height="900" fill="#0f3d76"></rect><path d="M0 626L28.2 610.3C56.3 594.7 112.7 563.3 169 561.5C225.3 559.7 281.7 587.3 337.8 607.8C394 628.3 450 641.7 506.2 627.7C562.3 613.7 618.7 572.3 646.8 551.7L675 531L675 901L646.8 901C618.7 901 562.3 901 506.2 901C450 901 394 901 337.8 901C281.7 901 225.3 901 169 901C112.7 901 56.3 901 28.2 901L0 901Z" fill="#111317" stroke-linecap="round" stroke-linejoin="miter"></path></svg>