<svg id="visual" viewBox="0 0 450 900" width="450" height="900" xmlns="http://www.w3.org/2000/svg" xmlns:xlink="http://www.w3.org/1999/xlink" version="1.1"><rect x="0" y="0" width="450" height="900" fill="#0f3d76"></rect><path d="M0 626L18.8 610.3C37.7 594.7 75.3 563.3 112.8 561.5C150.3 559.7 187.7 587.3 225.2 607.8C262.7 628.3 300.3 641.7 337.8 627.7C375.3 613.7 412.7 572.3 431.3 551.7L450 531L450 901L431.3 901C412.7 901 375.3 901 337.8 901C300.3 901 262.7 901 225.2 901C187.7 901 150.3 901 112.8 901C75.3 901 37.7 901 18.8 901L0 901Z" fill="#111317" stroke-linecap="round" stroke-linejoin="miter"></path></svg>