<svg id="visual" viewBox="0 0 540 960" width="540" height="960" xmlns="http://www.w3.org/2000/svg" xmlns:xlink="http://www.w3.org/1999/xlink" version="1.1"><rect x="0" y="0" width="540" height="960" fill="#0f3d76"></rect><path d="M0 667L22.5 650.3C45 633.7 90 600.3 135 598.5C180 596.7 225 626.3 270 648.3C315 670.3 360 684.7 405 669.7C450 654.7 495 610.3 517.5 588.2L540 566L540 961L517.5 961C495 961 450 961 405 961C360 961 315 961 270 961C225 961 180 961 135 961C90 961 45 961 22.5 961L0 961Z" fill="#111317" stroke-linecap="round" stroke-linejoin="miter"></path></svg>