<svg id="visual" viewBox="0 0 600 900" width="600" height="900" xmlns="http://www.w3.org/2000/svg" xmlns:xlink="http://www.w3.org/1999/xlink" version="1.1"><rect x="0" y="0" width="600" height="900" fill="#0f3d76"></rect><path d="M0 626L25 610.3C50 594.7 100 563.3 150 561.5C200 559.7 250 587.3 300 607.8C350 628.3 400 641.7 450 627.7C500 613.7 550 572.3 575 551.7L600 531L600 901L575 901C550 901 500 901 450 901C400 901 350 901 300 901C250 901 200 901 150 901C100 901 50 901 25 901L0 901Z" fill="#111317" stroke-linecap="round" stroke-linejoin="miter"></path></svg>